<?xml version="1.0" standalone="no"?>
<!DOCTYPE svg PUBLIC "-//W3C//DTD SVG 20010904//EN"
 "http://www.w3.org/TR/2001/REC-SVG-20010904/DTD/svg10.dtd">
<svg version="1.0" xmlns="http://www.w3.org/2000/svg"
 width="400.000000pt" height="400.000000pt" viewBox="0 0 400.000000 400.000000"
 preserveAspectRatio="xMidYMid meet">
<metadata>
Created by potrace 1.11, written by Peter Selinger 2001-2013
</metadata>
<g transform="translate(0.000000,400.000000) scale(0.100000,-0.100000)"
fill="#000000" stroke="none">
<path d="M1944 3449 c-166 -20 -251 -66 -414 -226 l-125 -123 69 0 c81 0 128
-19 156 -65 19 -31 20 -51 23 -681 2 -357 7 -662 10 -679 27 -114 82 -198 159
-240 64 -35 140 -46 328 -46 246 -1 319 16 397 93 49 48 88 130 101 211 5 32
10 337 10 678 0 340 3 627 6 636 4 14 -36 59 -157 178 -198 196 -281 246 -432
261 -27 3 -54 6 -60 8 -5 1 -38 -1 -71 -5z"/>
<path d="M909 2593 c-107 -109 -209 -219 -227 -245 -67 -98 -103 -219 -104
-345 0 -101 14 -165 58 -262 37 -80 72 -125 215 -272 52 -53 193 -199 314
-325 460 -477 481 -496 575 -542 47 -23 99 -44 115 -47 17 -3 41 -7 55 -10 35
-7 149 -7 185 0 71 14 114 29 180 63 60 30 99 65 267 236 109 110 196 201 194
203 -1 2 -28 -6 -60 -17 -53 -18 -104 -29 -216 -46 -61 -9 -511 -11 -580 -3
-30 4 -71 9 -90 12 -171 22 -351 107 -460 217 -109 109 -161 211 -200 390 -20
89 -21 126 -21 642 0 301 -1 548 -3 548 -1 0 -90 -89 -197 -197z"/>
<path d="M3203 2115 c0 -425 -4 -476 -50 -630 -8 -28 129 118 174 184 126 188
128 475 3 663 -16 23 -51 68 -78 98 l-49 55 0 -370z"/>
</g>
</svg>
